<svg width="22" height="25" viewBox="0 0 22 25" fill="none" xmlns="http://www.w3.org/2000/svg">
<path d="M21.2891 7.8125H0.585938C0.262354 7.8125 0 7.55015 0 7.22656V5.46875C0 4.17432 1.04932 3.125 2.34375 3.125H4.6875V0.585938C4.6875 0.262354 4.94985 0 5.27344 0H7.22656C7.55015 0 7.8125 0.262354 7.8125 0.585938V3.125H14.0625V0.585938C14.0625 0.262354 14.3249 0 14.6484 0H16.6016C16.9251 0 17.1875 0.262354 17.1875 0.585938V3.125H19.5312C20.8257 3.125 21.875 4.17432 21.875 5.46875V7.22656C21.875 7.55015 21.6126 7.8125 21.2891 7.8125ZM0.585938 9.375H21.2891C21.6126 9.375 21.875 9.63735 21.875 9.96094V22.6562C21.875 23.9507 20.8257 25 19.5312 25H2.34375C1.04932 25 0 23.9507 0 22.6562V9.96094C0 9.63735 0.262354 9.375 0.585938 9.375ZM16.8602 14.0599L15.4847 12.6733C15.2568 12.4436 14.8858 12.442 14.6561 12.67L9.47852 17.8059L7.2334 15.5426C7.00552 15.3129 6.63447 15.3114 6.40474 15.5393L5.01816 16.9148C4.78843 17.1427 4.78691 17.5137 5.01484 17.7434L9.0481 21.8093C9.27598 22.039 9.64697 22.0405 9.87671 21.8126L16.8568 14.8885C17.0866 14.6606 17.0881 14.2896 16.8602 14.0599V14.0599Z" fill="black"/>
</svg>
