<svg width="26" height="21" viewBox="0 0 26 21" fill="none" xmlns="http://www.w3.org/2000/svg">
<path d="M12.1688 5.82377L4.16665 12.4145V19.5278C4.16665 19.7119 4.23981 19.8886 4.37004 20.0188C4.50028 20.149 4.67691 20.2222 4.86109 20.2222L9.7248 20.2096C9.90838 20.2087 10.0841 20.1351 10.2136 20.005C10.3431 19.8749 10.4158 19.6988 10.4158 19.5152V15.3611C10.4158 15.1769 10.4889 15.0003 10.6192 14.8701C10.7494 14.7398 10.926 14.6667 11.1102 14.6667H13.888C14.0722 14.6667 14.2488 14.7398 14.379 14.8701C14.5093 15.0003 14.5824 15.1769 14.5824 15.3611V19.5121C14.5822 19.6035 14.5999 19.6941 14.6347 19.7786C14.6695 19.8631 14.7206 19.9399 14.7851 20.0046C14.8496 20.0693 14.9262 20.1207 15.0106 20.1557C15.095 20.1907 15.1855 20.2088 15.2769 20.2088L20.1389 20.2222C20.323 20.2222 20.4997 20.149 20.6299 20.0188C20.7601 19.8886 20.8333 19.7119 20.8333 19.5278V12.4097L12.8329 5.82377C12.7388 5.74796 12.6217 5.70662 12.5008 5.70662C12.38 5.70662 12.2629 5.74796 12.1688 5.82377V5.82377ZM24.809 10.3034L21.1805 7.31249V1.30077C21.1805 1.16264 21.1257 1.03016 21.028 0.932486C20.9303 0.834811 20.7978 0.779938 20.6597 0.779938H18.2291C18.091 0.779938 17.9585 0.834811 17.8609 0.932486C17.7632 1.03016 17.7083 1.16264 17.7083 1.30077V4.45225L13.8225 1.2552C13.4496 0.948331 12.9816 0.780551 12.4987 0.780551C12.0157 0.780551 11.5478 0.948331 11.1749 1.2552L0.188347 10.3034C0.135607 10.347 0.0919735 10.4005 0.0599388 10.461C0.0279041 10.5214 0.00809631 10.5876 0.00164726 10.6557C-0.00480179 10.7239 0.00223428 10.7926 0.0223534 10.858C0.0424726 10.9234 0.0752806 10.9842 0.118903 11.0369L1.22567 12.3824C1.26918 12.4353 1.32269 12.4791 1.38314 12.5113C1.44359 12.5434 1.5098 12.5634 1.57797 12.57C1.64614 12.5765 1.71494 12.5696 1.78043 12.5496C1.84592 12.5295 1.90681 12.4967 1.95961 12.4531L12.1688 4.04426C12.2629 3.96845 12.38 3.9271 12.5008 3.9271C12.6217 3.9271 12.7388 3.96845 12.8329 4.04426L23.0425 12.4531C23.0952 12.4967 23.156 12.5295 23.2214 12.5497C23.2868 12.5698 23.3555 12.5768 23.4237 12.5704C23.4918 12.5639 23.558 12.5441 23.6184 12.5121C23.6789 12.48 23.7324 12.4364 23.776 12.3837L24.8828 11.0382C24.9264 10.9852 24.959 10.9241 24.9789 10.8584C24.9988 10.7927 25.0055 10.7237 24.9986 10.6554C24.9918 10.5872 24.9715 10.5209 24.939 10.4605C24.9064 10.4001 24.8623 10.3467 24.809 10.3034V10.3034Z" fill="black"/>
</svg>
