<svg width="25" height="25" viewBox="0 0 25 25" fill="none" xmlns="http://www.w3.org/2000/svg">
<g clip-path="url(#clip0_2_32)">
<path d="M8.75 12.5C11.5117 12.5 13.75 10.2617 13.75 7.5C13.75 4.73828 11.5117 2.5 8.75 2.5C5.98828 2.5 3.75 4.73828 3.75 7.5C3.75 10.2617 5.98828 12.5 8.75 12.5ZM12.25 13.75H11.5977C10.7305 14.1484 9.76562 14.375 8.75 14.375C7.73438 14.375 6.77344 14.1484 5.90234 13.75H5.25C2.35156 13.75 0 16.1016 0 19V20.625C0 21.6602 0.839844 22.5 1.875 22.5H15.625C16.6602 22.5 17.5 21.6602 17.5 20.625V19C17.5 16.1016 15.1484 13.75 12.25 13.75ZM24.8672 8.73438L23.7812 7.63672C23.6016 7.45313 23.3086 7.45312 23.125 7.63281L19.0313 11.6953L17.2539 9.90625C17.0742 9.72266 16.7812 9.72266 16.5977 9.90234L15.5 10.9922C15.3164 11.1719 15.3164 11.4648 15.4961 11.6484L18.6875 14.8633C18.8672 15.0469 19.1602 15.0469 19.3438 14.8672L24.8633 9.39062C25.043 9.20703 25.0469 8.91406 24.8672 8.73438V8.73438Z" fill="black"/>
</g>
<defs>
<clipPath id="clip0_2_32">
<rect width="25" height="25" fill="white"/>
</clipPath>
</defs>
</svg>
